<svg id="Layer_1" data-name="Layer 1" xmlns="http://www.w3.org/2000/svg" viewBox="0 0 1585.9 308.82"><defs><style>.cls-1{fill:#001f3f;}.cls-2{fill:#4caf50;}.cls-3{fill:#0d47a1;}.cls-4{fill:silver;}</style></defs><path class="cls-1" d="M183.59,389.36h3.91V368q0-8.6.45-13.49a20,20,0,0,1,2.54-8.4,16,16,0,0,1,6-5.93,17,17,0,0,1,8.73-2.28A17.58,17.58,0,0,1,217.47,343a15.06,15.06,0,0,1,4.62,8.28,75.14,75.14,0,0,1,1,13.87v24.24h13q7.56,0,11.53,3.58a11.82,11.82,0,0,1,4,9.19q0,7.17-5.67,10T229.72,415h-6.65v65.41a106,106,0,0,0,.59,12.83,13.09,13.09,0,0,0,3.12,7.3c1.7,1.87,4.45,2.8,8.28,2.8a44.94,44.94,0,0,0,8.47-1.1,43.86,43.86,0,0,1,8.34-1.11,10.72,10.72,0,0,1,7.75,3.45,11.6,11.6,0,0,1,3.45,8.54q0,8.6-9.38,13.16t-27,4.56q-16.68,0-25.28-5.61a26,26,0,0,1-11.27-15.5q-2.67-9.9-2.67-26.45V415h-4.69q-7.69,0-11.73-3.65a11.93,11.93,0,0,1-4-9.25,11.48,11.48,0,0,1,4.24-9.19Q175.51,389.36,183.59,389.36Z" transform="translate(-167.04 -308.66)"/><path class="cls-1" d="M368.49,510.8v-4.56a79.1,79.1,0,0,1-13.43,13.55,49.34,49.34,0,0,1-15.37,8.14,62.34,62.34,0,0,1-19,2.68,49.17,49.17,0,0,1-23.12-5.35,39,39,0,0,1-15.83-14.72Q275,499.2,275.06,478V407.47q0-10.68,4.82-16t12.77-5.28q8.09,0,13,5.34t4.95,15.9v56.94a87.91,87.91,0,0,0,2.09,20.79q2.08,8.4,7.49,13.16t14.66,4.75a29.86,29.86,0,0,0,16.94-5.34,31.22,31.22,0,0,0,11.59-13.94q3-7.56,3-33.1V407.47q0-10.56,5-15.9a16.78,16.78,0,0,1,12.9-5.34q8,0,12.77,5.28t4.82,16V510.54q0,10.15-4.62,15.24a16.46,16.46,0,0,1-24-.19Q368.49,520.31,368.49,510.8Z" transform="translate(-167.04 -308.66)"/><path class="cls-1" d="M469.6,405.91v4.3Q479,397.84,490.12,392t25.61-5.8a51,51,0,0,1,25.14,6.13,38.88,38.88,0,0,1,16.55,17.33A41,41,0,0,1,562,423.76,144.92,144.92,0,0,1,563,443v66.2q0,10.68-4.88,16.15a17.56,17.56,0,0,1-25.61-.13q-4.95-5.6-4.95-16V450q0-17.59-4.88-26.91t-19.48-9.31a28.81,28.81,0,0,0-17.33,5.66A32.53,32.53,0,0,0,474.42,435q-2.61,7.95-2.61,29.71v44.57q0,10.82-5,16.22a16.92,16.92,0,0,1-13,5.41,16.11,16.11,0,0,1-12.64-5.61q-4.95-5.6-4.95-16V406.43q0-10.17,4.43-15.18t12.12-5a16.4,16.4,0,0,1,8.47,2.22,15.82,15.82,0,0,1,6.06,6.64A23.45,23.45,0,0,1,469.6,405.91Z" transform="translate(-167.04 -308.66)"/><path class="cls-1" d="M630.78,405.91v4.3q9.39-12.37,20.52-18.18a54.77,54.77,0,0,1,25.61-5.8,51,51,0,0,1,25.15,6.13,38.86,38.86,0,0,1,16.54,17.33,41,41,0,0,1,4.56,14.07A144.69,144.69,0,0,1,724.21,443v66.2q0,10.68-4.89,16.15a17.55,17.55,0,0,1-25.6-.13q-5-5.6-5-16V450q0-17.59-4.89-26.91t-19.48-9.31a28.83,28.83,0,0,0-17.33,5.66A32.59,32.59,0,0,0,635.6,435q-2.61,7.95-2.6,29.71v44.57q0,10.82-5,16.22a16.9,16.9,0,0,1-13,5.41,16.09,16.09,0,0,1-12.63-5.61q-5-5.6-5-16V406.43q0-10.17,4.43-15.18t12.12-5a16.4,16.4,0,0,1,8.47,2.22,15.82,15.82,0,0,1,6.06,6.64A23.45,23.45,0,0,1,630.78,405.91Z" transform="translate(-167.04 -308.66)"/><path class="cls-1" d="M777.63,369.68a18.7,18.7,0,0,1-12.7-4.56q-5.28-4.56-5.28-12.9a16,16,0,0,1,5.41-12.44,18.14,18.14,0,0,1,12.57-4.89,18.67,18.67,0,0,1,12.25,4.43q5.34,4.44,5.34,12.9,0,8.22-5.21,12.84A18.05,18.05,0,0,1,777.63,369.68Zm17.59,36.75V509.24q0,10.68-5.08,16.15a16.85,16.85,0,0,1-12.9,5.48,16,16,0,0,1-12.7-5.61q-4.89-5.6-4.89-16V407.47q0-10.56,4.89-15.9a16.41,16.41,0,0,1,12.7-5.34,17,17,0,0,1,12.9,5.34Q795.22,396.92,795.22,406.43Z" transform="translate(-167.04 -308.66)"/><path class="cls-1" d="M864.28,405.91v4.3q9.39-12.37,20.52-18.18a54.77,54.77,0,0,1,25.61-5.8,51,51,0,0,1,25.15,6.13,38.86,38.86,0,0,1,16.54,17.33,41,41,0,0,1,4.56,14.07A144.69,144.69,0,0,1,957.71,443v66.2q0,10.68-4.89,16.15a17.55,17.55,0,0,1-25.6-.13q-5-5.6-5-16V450q0-17.59-4.89-26.91t-19.48-9.31a28.83,28.83,0,0,0-17.33,5.66A32.59,32.59,0,0,0,869.1,435q-2.61,7.95-2.6,29.71v44.57q0,10.82-5,16.22a16.92,16.92,0,0,1-13,5.41,16.09,16.09,0,0,1-12.63-5.61q-5-5.6-5-16V406.43q0-10.17,4.43-15.18t12.12-5a16.4,16.4,0,0,1,8.47,2.22,15.82,15.82,0,0,1,6.06,6.64A23.45,23.45,0,0,1,864.28,405.91Z" transform="translate(-167.04 -308.66)"/><path class="cls-1" d="M1124,412.29V515.62q0,17.73-3.78,30.49a48.83,48.83,0,0,1-12.12,21.11q-8.34,8.34-21.82,12.38t-33.55,4q-18.37,0-32.84-5.15T997.58,565.2q-7.82-8.15-7.82-16.74a13.81,13.81,0,0,1,4.43-10.62,15.16,15.16,0,0,1,10.69-4.11q7.82,0,13.68,6.91,2.87,3.51,5.93,7.1a34.52,34.52,0,0,0,6.77,6.12,26.29,26.29,0,0,0,8.93,3.78,51.87,51.87,0,0,0,12,1.24q13.8,0,21.43-3.84a22,22,0,0,0,10.69-10.75,43.61,43.61,0,0,0,3.58-14.79q.51-7.89.78-25.35a58.26,58.26,0,0,1-19,17.46q-10.76,6-25.6,6-17.85,0-31.21-9.12T992.37,493Q985.2,476.53,985.2,455a89.68,89.68,0,0,1,4.37-28.93A60.63,60.63,0,0,1,1002,404.34,53.26,53.26,0,0,1,1020.64,391a58.56,58.56,0,0,1,23.2-4.5q15.11,0,26.19,5.8t20.58,18.18v-4.82q0-9.25,4.57-14.34a15,15,0,0,1,11.72-5.08q10.29,0,13.68,6.71T1124,412.29ZM1020.9,457.38q0,21.63,9.45,32.7t24.43,11.08a31.92,31.92,0,0,0,16.75-4.76,34.93,34.93,0,0,0,12.83-14.33q5-9.58,5-23.26,0-21.76-9.58-33.88t-25.21-12.12q-15.24,0-24.43,11.6T1020.9,457.38Z" transform="translate(-167.04 -308.66)"/><path class="cls-1" d="M1274.47,484.35q0,14.73-7.17,25.21t-21.17,15.9q-14,5.4-34.08,5.41-19.14,0-32.83-5.87T1159,510.34q-6.51-8.79-6.51-17.65a13.71,13.71,0,0,1,4.17-10,14.32,14.32,0,0,1,10.55-4.16q5.6,0,8.6,2.73a30,30,0,0,1,5.73,7.69q5.48,9.51,13.1,14.2t20.78,4.69q10.69,0,17.53-4.75t6.84-10.88q0-9.39-7.1-13.68t-23.39-8.21q-18.37-4.56-29.91-9.58A49.12,49.12,0,0,1,1161,447.47q-6.92-8.21-6.91-20.19a35.62,35.62,0,0,1,6.39-20.2q6.38-9.51,18.82-15.18t30-5.67a98.68,98.68,0,0,1,24.82,2.87,61.72,61.72,0,0,1,18.37,7.69,37.83,37.83,0,0,1,11.21,10.68,20.92,20.92,0,0,1,3.84,11.47,13.23,13.23,0,0,1-4.1,10q-4.11,3.91-11.66,3.91a14.26,14.26,0,0,1-9.32-3.13,61.74,61.74,0,0,1-8.8-9.38,32.23,32.23,0,0,0-9.51-8.34c-3.64-2.08-8.6-3.13-14.85-3.13q-9.64,0-16,4.11t-6.38,10.23a11,11,0,0,0,4.69,9.18,38.76,38.76,0,0,0,12.64,5.93q7.93,2.36,21.89,5.74,16.55,4,27,9.64t15.9,13.22A29.35,29.35,0,0,1,1274.47,484.35Z" transform="translate(-167.04 -308.66)"/><path class="cls-1" d="M1337.4,406.17v4.3q10-12.37,20.85-18.18a51.1,51.1,0,0,1,24.5-5.8A56.81,56.81,0,0,1,1413,395q13.8,8.48,21.82,24.76t8,38.57a94.17,94.17,0,0,1-4.63,30.16,67.68,67.68,0,0,1-12.7,23.07,55.45,55.45,0,0,1-19.09,14.33,56.45,56.45,0,0,1-23.65,5q-15.24,0-25.61-6.13t-19.74-18v53.42q0,23.46-17.07,23.46-10,0-13.29-6.06t-3.25-17.66V406.43q0-10.17,4.43-15.18t12.11-5a16,16,0,0,1,12.32,5.15Q1337.4,396.53,1337.4,406.17Zm69.72,51.73q0-14.07-4.31-24.17t-11.92-15.51a28.52,28.52,0,0,0-16.87-5.41q-14.73,0-24.82,11.6t-10.1,34.14q0,21.24,10,33T1374,503.37a28.59,28.59,0,0,0,16.42-5.14q7.55-5.14,12.11-15.45T1407.12,457.9Z" transform="translate(-167.04 -308.66)"/><path class="cls-1" d="M1673.45,389.36h3.91V368q0-8.6.46-13.49a19.85,19.85,0,0,1,2.54-8.4,15.94,15.94,0,0,1,6-5.93,17,17,0,0,1,8.73-2.28,17.56,17.56,0,0,1,12.25,5.08,15.06,15.06,0,0,1,4.62,8.28,74.26,74.26,0,0,1,1,13.87v24.24h13q7.56,0,11.53,3.58a11.82,11.82,0,0,1,4,9.19q0,7.17-5.67,10T1719.58,415h-6.65v65.41a106,106,0,0,0,.59,12.83,13,13,0,0,0,3.13,7.3q2.53,2.81,8.27,2.8a44.84,44.84,0,0,0,8.47-1.1,43.86,43.86,0,0,1,8.34-1.11,10.72,10.72,0,0,1,7.75,3.45,11.6,11.6,0,0,1,3.45,8.54q0,8.6-9.38,13.16t-27,4.56q-16.68,0-25.28-5.61a26,26,0,0,1-11.27-15.5q-2.67-9.9-2.67-26.45V415h-4.69q-7.7,0-11.73-3.65a11.93,11.93,0,0,1-4-9.25,11.48,11.48,0,0,1,4.24-9.19Q1665.37,389.36,1673.45,389.36Z" transform="translate(-167.04 -308.66)"/><circle class="cls-1" cx="1382.49" cy="88.26" r="63.47"/><path class="cls-1" d="M1549.45,308.66a92.78,92.78,0,0,0-92.78,92.78c0,51.24,92.78,170.84,92.78,170.84s92.78-119.6,92.78-170.84A92.78,92.78,0,0,0,1549.45,308.66Zm0,160.53A72.17,72.17,0,1,1,1621.62,397,72.17,72.17,0,0,1,1549.45,469.19Z" transform="translate(-167.04 -308.66)"/><circle class="cls-2" cx="1382.59" cy="120.24" r="6.1"/><path class="cls-2" d="M1596,377.36a63.22,63.22,0,0,0-92.71,0,3.7,3.7,0,0,0,5.42,5.05,55.81,55.81,0,0,1,81.88,0,3.7,3.7,0,1,0,5.41-5.05Z" transform="translate(-167.04 -308.66)"/><path class="cls-2" d="M1582.4,392.64a45.26,45.26,0,0,0-65.54,0,3.7,3.7,0,1,0,5.25,5.21,37.88,37.88,0,0,1,55,0,3.7,3.7,0,1,0,5.25-5.21Z" transform="translate(-167.04 -308.66)"/><path class="cls-2" d="M1567.77,408a26.68,26.68,0,0,0-18-7.73h-.28a26.68,26.68,0,0,0-18,7.73,3.7,3.7,0,1,0,5.21,5.25,19.32,19.32,0,0,1,12.79-5.58h.28a19.32,19.32,0,0,1,12.79,5.58,3.7,3.7,0,1,0,5.21-5.25Z" transform="translate(-167.04 -308.66)"/><path class="cls-3" d="M206.58,617.48a18,18,0,0,1-7.17-1.19,9,9,0,0,1-4.09-3.31,13,13,0,0,1-1.87-5,37.42,37.42,0,0,1-.48-6.22v-5.16h7.39v5.25c0,4,.4,6.82,1.22,8.55s2.56,2.6,5.25,2.6a6.78,6.78,0,0,0,4-.94,4.44,4.44,0,0,0,1.6-3,34.54,34.54,0,0,0,.33-5.32,11.22,11.22,0,0,0-1.59-6.18,17.38,17.38,0,0,0-5-4.77l-4.62-3.14c-1.38-.94-2.76-2-4.16-3.14a16.16,16.16,0,0,1-3.51-4,9.66,9.66,0,0,1-1.41-5.21,19,19,0,0,1,1.07-6.67,8.3,8.3,0,0,1,4.06-4.46c2-1.07,4.85-1.6,8.61-1.6a18.37,18.37,0,0,1,7.16,1.14,8,8,0,0,1,3.86,3.22,12.33,12.33,0,0,1,1.6,4.88,48.78,48.78,0,0,1,.36,6.16v3h-7.1v-3.38a33.36,33.36,0,0,0-.46-6.15,5.65,5.65,0,0,0-1.71-3.34,5.54,5.54,0,0,0-3.67-1,8.22,8.22,0,0,0-3.65.7,4.14,4.14,0,0,0-2.06,2.33,12.81,12.81,0,0,0-.63,4.48,7.79,7.79,0,0,0,.75,3.67,8.49,8.49,0,0,0,2.29,2.6c1,.79,2.28,1.72,3.76,2.8l4.62,3.32a26.77,26.77,0,0,1,6.55,6.44,14.32,14.32,0,0,1,2.48,8.46,21.34,21.34,0,0,1-1.09,7.18,8.67,8.67,0,0,1-4,4.74C213.23,616.92,210.36,617.48,206.58,617.48Z" transform="translate(-167.04 -308.66)"/><path class="cls-3" d="M241.52,617.42a18.61,18.61,0,0,1-7.06-1.11,8.49,8.49,0,0,1-4-3.17,12.09,12.09,0,0,1-1.72-4.89,46,46,0,0,1-.4-6.26V586.78a30.08,30.08,0,0,1,.51-5.73,11.17,11.17,0,0,1,1.93-4.58,9.22,9.22,0,0,1,4.07-3,18.48,18.48,0,0,1,6.89-1.09,17.17,17.17,0,0,1,6.83,1.11,7.91,7.91,0,0,1,3.71,3.09,11.79,11.79,0,0,1,1.58,4.68,44.46,44.46,0,0,1,.36,5.89V595H235.93v8.81a20.05,20.05,0,0,0,.89,6.86q.87,2.29,4.7,2.29a4.84,4.84,0,0,0,3.59-1.1,5.16,5.16,0,0,0,1.32-3.11,38.72,38.72,0,0,0,.26-4.8v-3.43h7.39v1.67a58.39,58.39,0,0,1-.3,6.2,11.92,11.92,0,0,1-1.47,4.82,7.56,7.56,0,0,1-3.73,3.14A18.21,18.21,0,0,1,241.52,617.42Zm-5.59-26.35h10.76v-5.61a44.73,44.73,0,0,0-.21-4.74,4.67,4.67,0,0,0-1.24-2.92,4.86,4.86,0,0,0-3.43-1,5.72,5.72,0,0,0-3.86,1.11,5.34,5.34,0,0,0-1.64,3.11,25.55,25.55,0,0,0-.38,4.67Z" transform="translate(-167.04 -308.66)"/><path class="cls-3" d="M277.14,617.42a18.69,18.69,0,0,1-7.1-1.11,8.39,8.39,0,0,1-4-3.17,12.26,12.26,0,0,1-1.74-4.89,42.83,42.83,0,0,1-.42-6.26V587.05a27.53,27.53,0,0,1,.94-7.54,9.12,9.12,0,0,1,3.82-5.24c1.92-1.28,4.83-1.93,8.72-1.93a18.11,18.11,0,0,1,6.7,1,7.69,7.69,0,0,1,3.71,2.89,10.87,10.87,0,0,1,1.6,4.47,40.44,40.44,0,0,1,.38,5.74v2.29h-7.56V585.4a42.56,42.56,0,0,0-.21-4.62,4.45,4.45,0,0,0-1.22-2.82,5,5,0,0,0-3.44-1,5.94,5.94,0,0,0-3.85,1,5.1,5.1,0,0,0-1.63,3,22.68,22.68,0,0,0-.4,4.58v18.26a31.32,31.32,0,0,0,.33,5,4.55,4.55,0,0,0,1.54,2.93,5.86,5.86,0,0,0,3.71,1,5,5,0,0,0,3.55-1,4.94,4.94,0,0,0,1.35-3,35.44,35.44,0,0,0,.27-4.73v-3.84h7.56v2.17a47.35,47.35,0,0,1-.36,6.1,12.15,12.15,0,0,1-1.57,4.77,7.93,7.93,0,0,1-3.78,3.11A17.8,17.8,0,0,1,277.14,617.42Z" transform="translate(-167.04 -308.66)"/><path class="cls-3" d="M310.32,617.48a13.62,13.62,0,0,1-4.83-.88,8.53,8.53,0,0,1-3.91-3,9,9,0,0,1-1.55-5.56V572.87h7.56v34.75a4.84,4.84,0,0,0,1.47,3.86,6.36,6.36,0,0,0,4.28,1.28,7.09,7.09,0,0,0,4.85-1.48,4.93,4.93,0,0,0,1.66-3.86l0-34.55h7.64v44h-7.6v-4.47a7.81,7.81,0,0,1-3.32,3.53A11.71,11.71,0,0,1,310.32,617.48Z" transform="translate(-167.04 -308.66)"/><path class="cls-3" d="M340.05,616.9v-44h7.56v4.9a8.09,8.09,0,0,1,3.81-4,14.59,14.59,0,0,1,6.9-1.44c.06,0,.1.23.11.68s0,1,0,1.57v2.24a21.88,21.88,0,0,0-4,.36,13.4,13.4,0,0,0-3.67,1.2,11.54,11.54,0,0,0-3.2,2.38V616.9Z" transform="translate(-167.04 -308.66)"/><path class="cls-3" d="M378.32,617.42a18.57,18.57,0,0,1-7.06-1.11,8.44,8.44,0,0,1-4-3.17,12.09,12.09,0,0,1-1.72-4.89,44.43,44.43,0,0,1-.4-6.26V586.78a31,31,0,0,1,.5-5.73,11.18,11.18,0,0,1,1.94-4.58,9.22,9.22,0,0,1,4.07-3,18.44,18.44,0,0,1,6.89-1.09,17.12,17.12,0,0,1,6.82,1.11,7.89,7.89,0,0,1,3.72,3.09,12,12,0,0,1,1.58,4.68,46.32,46.32,0,0,1,.35,5.89V595H372.73v8.81a20.1,20.1,0,0,0,.88,6.86q.88,2.29,4.71,2.29a4.85,4.85,0,0,0,3.59-1.1,5.28,5.28,0,0,0,1.32-3.11,38.92,38.92,0,0,0,.25-4.8v-3.43h7.4v1.67a58.39,58.39,0,0,1-.3,6.2,12.24,12.24,0,0,1-1.47,4.82,7.54,7.54,0,0,1-3.74,3.14A18.19,18.19,0,0,1,378.32,617.42Zm-5.59-26.35h10.75v-5.61a44.73,44.73,0,0,0-.21-4.74A4.62,4.62,0,0,0,382,577.8a4.82,4.82,0,0,0-3.42-1,5.7,5.7,0,0,0-3.86,1.11,5.34,5.34,0,0,0-1.64,3.11,25.55,25.55,0,0,0-.38,4.67Z" transform="translate(-167.04 -308.66)"/><path class="cls-2" d="M433.17,617.48a17.89,17.89,0,0,1-7.16-1.19,9.06,9.06,0,0,1-4.1-3.31,13.2,13.2,0,0,1-1.87-5,37.42,37.42,0,0,1-.48-6.22v-5.16H427v5.25q0,6,1.22,8.55c.81,1.74,2.56,2.6,5.25,2.6a6.78,6.78,0,0,0,4-.94,4.4,4.4,0,0,0,1.6-3,34.36,34.36,0,0,0,.34-5.32,11.22,11.22,0,0,0-1.6-6.18,17.13,17.13,0,0,0-5-4.77l-4.62-3.14q-2.06-1.41-4.16-3.14a16.16,16.16,0,0,1-3.51-4,9.74,9.74,0,0,1-1.4-5.21,18.82,18.82,0,0,1,1.07-6.67,8.24,8.24,0,0,1,4.05-4.46q3-1.61,8.61-1.6a18.33,18.33,0,0,1,7.16,1.14,8.12,8.12,0,0,1,3.87,3.22,12.49,12.49,0,0,1,1.59,4.88,48.78,48.78,0,0,1,.36,6.16v3h-7.1v-3.38a32.5,32.5,0,0,0-.46-6.15,5.7,5.7,0,0,0-1.7-3.34,5.57,5.57,0,0,0-3.68-1,8.25,8.25,0,0,0-3.65.7,4.17,4.17,0,0,0-2.06,2.33,12.81,12.81,0,0,0-.63,4.48,7.67,7.67,0,0,0,.76,3.67,8.23,8.23,0,0,0,2.29,2.6q1.53,1.18,3.76,2.8l4.62,3.32a27,27,0,0,1,6.55,6.44,14.39,14.39,0,0,1,2.48,8.46,21.33,21.33,0,0,1-1.1,7.18,8.63,8.63,0,0,1-4.05,4.74Q438.85,617.47,433.17,617.48Z" transform="translate(-167.04 -308.66)"/><path class="cls-2" d="M468.2,617.42a18.69,18.69,0,0,1-7.1-1.11,8.44,8.44,0,0,1-4-3.17,12.26,12.26,0,0,1-1.74-4.89A42.83,42.83,0,0,1,455,602V587.05a27.53,27.53,0,0,1,.94-7.54,9.12,9.12,0,0,1,3.82-5.24c1.92-1.28,4.83-1.93,8.72-1.93a18.11,18.11,0,0,1,6.7,1,7.76,7.76,0,0,1,3.72,2.89,11,11,0,0,1,1.59,4.47,40.44,40.44,0,0,1,.38,5.74v2.29h-7.56V585.4a42.56,42.56,0,0,0-.21-4.62,4.45,4.45,0,0,0-1.22-2.82,5,5,0,0,0-3.44-1,5.94,5.94,0,0,0-3.85,1,5.1,5.1,0,0,0-1.63,3,22.68,22.68,0,0,0-.4,4.58v18.26a31.32,31.32,0,0,0,.33,5,4.55,4.55,0,0,0,1.54,2.93,5.88,5.88,0,0,0,3.71,1,4.17,4.17,0,0,0,4.9-4,35.44,35.44,0,0,0,.27-4.73v-3.84h7.56v2.17a47.35,47.35,0,0,1-.36,6.1,12,12,0,0,1-1.57,4.77,7.84,7.84,0,0,1-3.78,3.11A17.8,17.8,0,0,1,468.2,617.42Z" transform="translate(-167.04 -308.66)"/><path class="cls-2" d="M500.62,617.25q-5.37,0-7.89-3t-2.57-8.51v-4.9a6.93,6.93,0,0,1,1.43-4.44,11.27,11.27,0,0,1,4-3.07,41.37,41.37,0,0,1,6-2.32c2.29-.7,4.79-1.44,7.47-2.2v-3.23a39.33,39.33,0,0,0-.25-5,4.18,4.18,0,0,0-1.34-2.83,5.49,5.49,0,0,0-3.53-.92,5.83,5.83,0,0,0-3.57.9,4.34,4.34,0,0,0-1.51,2.85,30.55,30.55,0,0,0-.34,5.12V587H491v-1.2a33,33,0,0,1,.4-5.2,10.45,10.45,0,0,1,1.68-4.28,8.44,8.44,0,0,1,3.91-2.92,19,19,0,0,1,7.07-1.08,19.34,19.34,0,0,1,6.89,1,7.49,7.49,0,0,1,3.76,2.92,11.46,11.46,0,0,1,1.62,4.75,49.92,49.92,0,0,1,.38,6.52V616.9h-7.61v-3.58A5.39,5.39,0,0,1,507.7,615a8.94,8.94,0,0,1-2.77,1.6A12,12,0,0,1,500.62,617.25Zm1.85-4.32a8.47,8.47,0,0,0,4.18-1,6.7,6.7,0,0,0,2.41-2V592.51q-3.57,1.08-5.79,1.92a13.42,13.42,0,0,0-3.42,1.75,4.55,4.55,0,0,0-1.64,2.18,9.92,9.92,0,0,0-.44,3.25v3.81q0,4.05.94,5.78C499.34,612.36,500.59,612.93,502.47,612.93Z" transform="translate(-167.04 -308.66)"/><path class="cls-2" d="M528.43,616.9V564.63H536V616.9Z" transform="translate(-167.04 -308.66)"/><path class="cls-2" d="M557.83,617.25q-5.39,0-7.9-3t-2.56-8.51v-4.9a6.93,6.93,0,0,1,1.43-4.44,11.27,11.27,0,0,1,4-3.07,41.67,41.67,0,0,1,6-2.32c2.3-.7,4.79-1.44,7.48-2.2v-3.23a39.33,39.33,0,0,0-.25-5,4.22,4.22,0,0,0-1.35-2.83,5.44,5.44,0,0,0-3.52-.92,5.83,5.83,0,0,0-3.57.9,4.35,4.35,0,0,0-1.52,2.85,31.83,31.83,0,0,0-.33,5.12V587h-7.56v-1.2a31.81,31.81,0,0,1,.4-5.2,10.18,10.18,0,0,1,1.68-4.28,8.36,8.36,0,0,1,3.9-2.92,19,19,0,0,1,7.08-1.08,19.37,19.37,0,0,1,6.89,1,7.54,7.54,0,0,1,3.76,2.92,11.6,11.6,0,0,1,1.61,4.75,48.23,48.23,0,0,1,.38,6.52V616.9h-7.6v-3.58A5.45,5.45,0,0,1,564.9,615a8.83,8.83,0,0,1-2.77,1.6A11.93,11.93,0,0,1,557.83,617.25Zm1.85-4.32a8.46,8.46,0,0,0,4.17-1,6.84,6.84,0,0,0,2.42-2V592.51q-3.57,1.08-5.8,1.92a13.78,13.78,0,0,0-3.42,1.75,4.61,4.61,0,0,0-1.64,2.18,10.2,10.2,0,0,0-.44,3.25v3.81q0,4.05.95,5.78C556.55,612.36,557.8,612.93,559.68,612.93Z" transform="translate(-167.04 -308.66)"/><path class="cls-2" d="M601.72,617.25a13.89,13.89,0,0,1-4.87-.87,6.92,6.92,0,0,1-3.66-3v3.56h-7.56V564.63h7.56v11.85a5.19,5.19,0,0,1,2.9-3,11,11,0,0,1,4.75-1.16c3.16,0,5.55.58,7.16,1.85a9.47,9.47,0,0,1,3.27,5.2,28.7,28.7,0,0,1,.87,7.34V603a31.19,31.19,0,0,1-.78,7.3,9.27,9.27,0,0,1-3,5.11Q606.13,617.25,601.72,617.25Zm-2.52-4.37c2.18,0,3.62-.78,4.3-2.28s1-3.94,1-7.32V585.67a29.81,29.81,0,0,0-.31-4.64,5.52,5.52,0,0,0-1.39-3.07,4.61,4.61,0,0,0-3.42-1.1,8.3,8.3,0,0,0-3.32.61A4.22,4.22,0,0,0,594,580a16.21,16.21,0,0,0-.76,5.74v17.72a17,17,0,0,0,1.14,7.14C595.08,612.1,596.71,612.88,599.2,612.88Z" transform="translate(-167.04 -308.66)"/><path class="cls-2" d="M623.9,616.9V564.63h7.56V616.9Z" transform="translate(-167.04 -308.66)"/><path class="cls-2" d="M656.28,617.42a18.61,18.61,0,0,1-7.06-1.11,8.44,8.44,0,0,1-4-3.17,12.09,12.09,0,0,1-1.72-4.89,44.43,44.43,0,0,1-.4-6.26V586.78a30.08,30.08,0,0,1,.51-5.73,11.17,11.17,0,0,1,1.93-4.58,9.22,9.22,0,0,1,4.07-3,18.48,18.48,0,0,1,6.89-1.09,17.12,17.12,0,0,1,6.82,1.11,7.89,7.89,0,0,1,3.72,3.09,12,12,0,0,1,1.58,4.68,46.32,46.32,0,0,1,.35,5.89V595H650.69v8.81a20.35,20.35,0,0,0,.88,6.86q.88,2.29,4.71,2.29a4.85,4.85,0,0,0,3.59-1.1,5.28,5.28,0,0,0,1.32-3.11,38.92,38.92,0,0,0,.25-4.8v-3.43h7.4v1.67a58.39,58.39,0,0,1-.3,6.2,11.92,11.92,0,0,1-1.47,4.82,7.54,7.54,0,0,1-3.74,3.14A18.16,18.16,0,0,1,656.28,617.42Zm-5.59-26.35h10.75v-5.61a44.73,44.73,0,0,0-.21-4.74A4.62,4.62,0,0,0,660,577.8a4.82,4.82,0,0,0-3.42-1,5.72,5.72,0,0,0-3.86,1.11,5.34,5.34,0,0,0-1.64,3.11,25.55,25.55,0,0,0-.38,4.67Z" transform="translate(-167.04 -308.66)"/><path class="cls-4" d="M711.13,617.48a17.92,17.92,0,0,1-7.16-1.19,9,9,0,0,1-4.09-3.31,12.87,12.87,0,0,1-1.87-5,36.33,36.33,0,0,1-.49-6.22v-5.16h7.4v5.25q0,6,1.21,8.55c.81,1.74,2.56,2.6,5.25,2.6a6.82,6.82,0,0,0,4-.94,4.39,4.39,0,0,0,1.59-3,34.36,34.36,0,0,0,.34-5.32,11.22,11.22,0,0,0-1.6-6.18,17.13,17.13,0,0,0-5-4.77l-4.62-3.14q-2.05-1.41-4.16-3.14a15.92,15.92,0,0,1-3.5-4,9.66,9.66,0,0,1-1.41-5.21,19,19,0,0,1,1.07-6.67,8.24,8.24,0,0,1,4-4.46q3-1.61,8.61-1.6a18.33,18.33,0,0,1,7.16,1.14,8.12,8.12,0,0,1,3.87,3.22,12.32,12.32,0,0,1,1.59,4.88,48.78,48.78,0,0,1,.36,6.16v3h-7.1v-3.38a32.5,32.5,0,0,0-.46-6.15,5.65,5.65,0,0,0-1.7-3.34,5.57,5.57,0,0,0-3.68-1,8.25,8.25,0,0,0-3.65.7,4.17,4.17,0,0,0-2.06,2.33,12.81,12.81,0,0,0-.63,4.48,7.79,7.79,0,0,0,.76,3.67,8.36,8.36,0,0,0,2.29,2.6q1.53,1.18,3.76,2.8l4.62,3.32a27,27,0,0,1,6.55,6.44,14.39,14.39,0,0,1,2.48,8.46,21.6,21.6,0,0,1-1.09,7.18,8.64,8.64,0,0,1-4.06,4.74Q716.81,617.47,711.13,617.48Z" transform="translate(-167.04 -308.66)"/><path class="cls-4" d="M746.08,617.42a18.57,18.57,0,0,1-7.06-1.11,8.44,8.44,0,0,1-4-3.17,12,12,0,0,1-1.72-4.89,44.43,44.43,0,0,1-.4-6.26V586.78a31,31,0,0,1,.5-5.73,11.18,11.18,0,0,1,1.94-4.58,9.22,9.22,0,0,1,4.07-3,18.44,18.44,0,0,1,6.89-1.09,17.12,17.12,0,0,1,6.82,1.11,7.89,7.89,0,0,1,3.72,3.09,11.78,11.78,0,0,1,1.57,4.68,44.46,44.46,0,0,1,.36,5.89V595H740.49v8.81a20.1,20.1,0,0,0,.88,6.86q.89,2.29,4.71,2.29a4.85,4.85,0,0,0,3.59-1.1,5.28,5.28,0,0,0,1.32-3.11,38.92,38.92,0,0,0,.25-4.8v-3.43h7.39v1.67a58.56,58.56,0,0,1-.29,6.2,12.24,12.24,0,0,1-1.47,4.82,7.54,7.54,0,0,1-3.74,3.14A18.19,18.19,0,0,1,746.08,617.42Zm-5.59-26.35h10.75v-5.61a44.73,44.73,0,0,0-.21-4.74,4.62,4.62,0,0,0-1.24-2.92,4.82,4.82,0,0,0-3.42-1,5.7,5.7,0,0,0-3.86,1.11,5.34,5.34,0,0,0-1.64,3.11,25.55,25.55,0,0,0-.38,4.67Z" transform="translate(-167.04 -308.66)"/><path class="cls-4" d="M778.63,617.25q-5.39,0-7.9-3t-2.56-8.51v-4.9a6.88,6.88,0,0,1,1.43-4.44,11.27,11.27,0,0,1,4-3.07,41.22,41.22,0,0,1,6-2.32c2.3-.7,4.79-1.44,7.48-2.2v-3.23a41.32,41.32,0,0,0-.25-5,4.22,4.22,0,0,0-1.35-2.83,5.47,5.47,0,0,0-3.53-.92,5.87,5.87,0,0,0-3.57.9,4.39,4.39,0,0,0-1.51,2.85,31.83,31.83,0,0,0-.33,5.12V587H769v-1.2a31.81,31.81,0,0,1,.4-5.2,10.3,10.3,0,0,1,1.67-4.28,8.44,8.44,0,0,1,3.91-2.92,19,19,0,0,1,7.08-1.08,19.37,19.37,0,0,1,6.89,1,7.54,7.54,0,0,1,3.76,2.92,11.6,11.6,0,0,1,1.61,4.75,49.92,49.92,0,0,1,.38,6.52V616.9h-7.6v-3.58A5.61,5.61,0,0,1,785.7,615a8.83,8.83,0,0,1-2.77,1.6A12,12,0,0,1,778.63,617.25Zm1.84-4.32a8.47,8.47,0,0,0,4.18-1,6.84,6.84,0,0,0,2.42-2V592.51q-3.57,1.08-5.8,1.92a13.78,13.78,0,0,0-3.42,1.75,4.61,4.61,0,0,0-1.64,2.18,10.2,10.2,0,0,0-.44,3.25v3.81c0,2.7.31,4.63,1,5.78S778.6,612.93,780.47,612.93Z" transform="translate(-167.04 -308.66)"/><path class="cls-4" d="M806.3,616.9v-44h7.56v4.49a7.57,7.57,0,0,1,3.39-3.52,13.86,13.86,0,0,1,11.65-.45,6.84,6.84,0,0,1,3.36,3.39,11,11,0,0,1,4.35-3.23,15.53,15.53,0,0,1,6.32-1.23,10.46,10.46,0,0,1,7.16,2.3q2.63,2.31,2.63,7.09V616.9h-7.61V581.5c0-1.7-.49-2.88-1.47-3.52a6.86,6.86,0,0,0-3.86-1c-2.35,0-4,.33-5,1s-1.49,1.9-1.49,3.7V616.9h-7.56V581.47a3.9,3.9,0,0,0-1.45-3.48,6.79,6.79,0,0,0-3.84-1,7.77,7.77,0,0,0-4.88,1.32,4.5,4.5,0,0,0-1.68,3.76V616.9Z" transform="translate(-167.04 -308.66)"/><path class="cls-4" d="M865.19,616.9V564.63h7.56V616.9Z" transform="translate(-167.04 -308.66)"/><path class="cls-4" d="M897.57,617.42a18.51,18.51,0,0,1-7.05-1.11,8.39,8.39,0,0,1-4-3.17,12,12,0,0,1-1.72-4.89,44.43,44.43,0,0,1-.4-6.26V586.78a30.11,30.11,0,0,1,.5-5.73,11.3,11.3,0,0,1,1.93-4.58,9.2,9.2,0,0,1,4.08-3,18.42,18.42,0,0,1,6.88-1.09,17.17,17.17,0,0,1,6.83,1.11,7.93,7.93,0,0,1,3.72,3.09,11.94,11.94,0,0,1,1.57,4.68,44.46,44.46,0,0,1,.36,5.89V595H892v8.81a20.1,20.1,0,0,0,.88,6.86c.59,1.53,2.15,2.29,4.7,2.29a4.84,4.84,0,0,0,3.59-1.1,5.23,5.23,0,0,0,1.33-3.11,41,41,0,0,0,.25-4.8v-3.43h7.39v1.67a61.35,61.35,0,0,1-.29,6.2,12.24,12.24,0,0,1-1.47,4.82,7.59,7.59,0,0,1-3.74,3.14A18.21,18.21,0,0,1,897.57,617.42ZM892,591.07h10.75v-5.61a44.73,44.73,0,0,0-.21-4.74,4.62,4.62,0,0,0-1.24-2.92,4.85,4.85,0,0,0-3.42-1,5.73,5.73,0,0,0-3.87,1.11,5.39,5.39,0,0,0-1.64,3.11,25.62,25.62,0,0,0-.37,4.67Z" transform="translate(-167.04 -308.66)"/><path class="cls-4" d="M932.18,617.48q-6.67,0-10-3t-3.3-9.69v-3.52h7.43v3.17a12.22,12.22,0,0,0,1.3,6.21,4.42,4.42,0,0,0,4.08,2.16,5.72,5.72,0,0,0,4.14-1.28c.85-.85,1.28-2.39,1.28-4.62a9.72,9.72,0,0,0-.53-3.14,9.36,9.36,0,0,0-1.85-3.11,18.07,18.07,0,0,0-3.76-3.2l-4.57-3a20.87,20.87,0,0,1-6-5.74,11.38,11.38,0,0,1-1.93-6.32c0-3.44,1.15-6,3.46-7.63s5.43-2.47,9.35-2.47a16.08,16.08,0,0,1,6.7,1.28,8.68,8.68,0,0,1,4.24,4.27,19.2,19.2,0,0,1,1.45,8.19v2.38h-7.14V585.2a12.67,12.67,0,0,0-1.18-6.15,4.22,4.22,0,0,0-4-2,5.2,5.2,0,0,0-4.07,1.41,6.61,6.61,0,0,0-1.35,4.29,7.18,7.18,0,0,0,.46,2.72,8.51,8.51,0,0,0,1.81,2.75,21.26,21.26,0,0,0,3.61,3l4.45,3a21.56,21.56,0,0,1,6.49,6.13,12.44,12.44,0,0,1,2,6.78,9.91,9.91,0,0,1-3,7.62Q938.7,617.48,932.18,617.48Z" transform="translate(-167.04 -308.66)"/><path class="cls-4" d="M964.82,617.48q-6.69,0-10-3t-3.3-9.69v-3.52H959v3.17a12.12,12.12,0,0,0,1.3,6.21,4.41,4.41,0,0,0,4.07,2.16,5.68,5.68,0,0,0,4.14-1.28c.85-.85,1.28-2.39,1.28-4.62a9.71,9.71,0,0,0-.52-3.14,9.54,9.54,0,0,0-1.85-3.11,18.34,18.34,0,0,0-3.76-3.2l-4.58-3a21,21,0,0,1-6-5.74,11.46,11.46,0,0,1-1.93-6.32c0-3.44,1.16-6,3.47-7.63s5.42-2.47,9.34-2.47a16,16,0,0,1,6.7,1.28,8.64,8.64,0,0,1,4.24,4.27,19,19,0,0,1,1.45,8.19v2.38h-7.14V585.2a12.69,12.69,0,0,0-1.17-6.15,4.24,4.24,0,0,0-4-2,5.22,5.22,0,0,0-4.08,1.41,6.55,6.55,0,0,0-1.34,4.29,7,7,0,0,0,.46,2.72,8.51,8.51,0,0,0,1.81,2.75,20.87,20.87,0,0,0,3.61,3l4.45,3a21.68,21.68,0,0,1,6.49,6.13,12.44,12.44,0,0,1,2,6.78,9.91,9.91,0,0,1-3,7.62Q971.33,617.48,964.82,617.48Z" transform="translate(-167.04 -308.66)"/></svg>